<svg xmlns="http://www.w3.org/2000/svg" width="133" height="40" viewBox="0 0 133 40" fill="none">
    <path d="M.51.5c.51 10.757 1.182 22.28.986 33-.09 4.925-.493 4.925 5.52 4.925 4.503-.037 13.496 0 13.496 0s59.041.074 88.488 0c5.991 0 13.048.484 19 .075.351-.024 2.116-.034 2.541-.5 0-.964-.089-3.228 0-5 .313-8.895.509-19.105 0-28-.073-1.314 0-3.098 0-3.098s-1.97.098-3.837.037c-.391-.075-1.214-.037-1.723-.037a2833.191 2833.191 0 0 0-70.69-.15c-15.86-.26-50.606-.006-50.606-.006S1.003 1 1.003 0c42.359.5 131.015 0 131.015 0v40c-10.964 0-22.358-.246-33.518-.134-16.994.186-50 0-50 0s-9.263-.105-14 0c-9.163.149-17.056-.149-26.22 0-3.917.037-6.578 0-7.903 0-.5-.886-.359-4.022-.359-7.63 0-9.863 0-19.69.079-30.148C.175 1.492.51.5.51.5z" fill="currentColor"/>
</svg>
